<svg xmlns="http://www.w3.org/2000/svg" xmlns:xlink="http://www.w3.org/1999/xlink" width="330" viewBox="0 0 247.5 74.999997" height="100" preserveAspectRatio="xMidYMid meet"><g id="4ae033f183"><path style=" stroke:none;fill-rule:nonzero;fill:#fdfdfd;fill-opacity:1;" d="M 130.582031 9.921875 C 131.59375 10.421875 132.496094 11.03125 133.363281 11.757812 L 133.757812 12.085938 C 135.648438 13.714844 137.054688 15.765625 137.910156 18.109375 C 138.207031 18.957031 138.402344 19.8125 138.554688 20.695312 L 138.640625 21.167969 C 139.011719 23.496094 138.679688 25.96875 137.871094 28.183594 C 137.210938 29.757812 136.386719 31.160156 135.308594 32.484375 L 135.085938 32.769531 C 133.59375 34.574219 131.382812 35.917969 129.210938 36.757812 C 128.613281 36.964844 128.011719 37.132812 127.394531 37.277344 L 127.046875 37.367188 C 124.5 37.902344 121.773438 37.578125 119.320312 36.792969 C 117.023438 36.007812 114.964844 34.601562 113.332031 32.800781 C 111.605469 30.808594 110.410156 28.476562 109.898438 25.886719 C 109.4375 23.203125 109.664062 20.433594 110.589844 17.882812 C 111.515625 15.476562 113.019531 13.363281 115.019531 11.71875 C 117.019531 10.132812 119.3125 9.121094 121.832031 8.726562 C 124.824219 8.285156 127.820312 8.644531 130.582031 9.921875 M 119.652344 16.585938 L 119.351562 16.808594 L 119.101562 16.992188 C 118.136719 17.738281 117.40625 18.851562 116.890625 19.945312 C 116.335938 21.449219 116.246094 23.003906 116.457031 24.582031 C 116.742188 26.089844 117.433594 27.332031 118.421875 28.488281 C 119.386719 29.511719 120.601562 30.261719 121.945312 30.671875 C 123.3125 31.042969 124.851562 31.039062 126.234375 30.742188 C 127.644531 30.367188 128.84375 29.628906 129.894531 28.628906 C 130.96875 27.5 131.5625 26.351562 131.9375 24.839844 L 132.011719 24.539062 C 132.230469 23.148438 132.167969 21.625 131.675781 20.308594 C 131.046875 18.773438 130.128906 17.578125 128.824219 16.554688 C 127.746094 15.824219 126.5625 15.351562 125.265625 15.222656 C 123.183594 15.109375 121.394531 15.371094 119.652344 16.585938 "></path><path style=" stroke:none;fill-rule:nonzero;fill:#fefefe;fill-opacity:1;" d="M 59.285156 3.207031 L 59.523438 3.339844 C 67.589844 7.792969 77.085938 8.949219 86.140625 9.8125 L 86.597656 9.859375 C 90.269531 10.210938 93.945312 10.53125 97.625 10.800781 L 97.980469 10.824219 C 99.136719 10.910156 100.292969 10.996094 101.449219 11.074219 C 101.878906 11.105469 102.308594 11.136719 102.738281 11.167969 C 102.9375 11.179688 103.136719 11.195312 103.332031 11.207031 C 107.226562 11.464844 107.226562 11.464844 108.84375 12.535156 C 109.304688 12.933594 109.554688 13.386719 109.75 13.960938 C 110.023438 15.472656 109.449219 16.828125 108.96875 18.238281 C 108.683594 19.082031 108.46875 19.945312 108.324219 20.824219 L 108.273438 21.109375 C 108.230469 21.40625 108.210938 21.695312 108.195312 21.992188 L 108.167969 22.480469 C 108.078125 25.183594 108.707031 27.746094 109.921875 30.148438 C 110.105469 30.476562 110.292969 30.765625 110.53125 31.058594 L 110.402344 31.320312 C 109.074219 30.109375 107.878906 28.476562 107.324219 26.761719 C 106.691406 24.621094 106.347656 22.476562 106.375 20.242188 L 106.378906 19.488281 C 106.382812 19.097656 106.386719 18.707031 106.390625 18.320312 C 106.394531 17.9375 106.398438 17.554688 106.398438 17.175781 L 106.40625 16.824219 C 106.40625 16.367188 106.378906 15.910156 106.320312 15.457031 L 106.117188 15.125 C 105.40625 14.738281 104.570312 14.65625 103.773438 14.585938 L 103.425781 14.554688 C 101.84375 14.429688 100.253906 14.4375 98.671875 14.425781 C 90.9375 14.371094 83.296875 13.691406 75.640625 12.636719 C 75.375 12.601562 75.113281 12.566406 74.847656 12.527344 C 70.761719 11.972656 66.808594 11.269531 63.445312 8.753906 C 61.660156 7.34375 60.25 5.792969 59.355469 3.683594 C 59.285156 3.46875 59.285156 3.46875 59.285156 3.207031 M 188.371094 3.207031 L 188.632812 3.207031 C 188.074219 5.054688 186.828125 6.636719 185.4375 7.945312 C 183.25 9.925781 180.59375 11.09375 177.734375 11.757812 C 176.101562 12.085938 174.453125 12.308594 172.804688 12.535156 L 172.359375 12.597656 C 167.890625 13.210938 163.421875 13.78125 158.921875 14.089844 L 158.601562 14.109375 C 156.269531 14.269531 153.933594 14.347656 151.597656 14.378906 L 151.328125 14.382812 C 150.363281 14.394531 149.398438 14.40625 148.433594 14.410156 C 146.859375 14.425781 145.300781 14.472656 143.734375 14.652344 L 143.328125 14.699219 C 142.804688 14.765625 142.390625 14.832031 141.910156 15.066406 C 141.679688 15.238281 141.679688 15.238281 141.539062 15.382812 C 141.523438 15.597656 141.519531 15.808594 141.519531 16.019531 L 141.515625 16.433594 L 141.515625 16.882812 C 141.511719 17.203125 141.507812 17.519531 141.503906 17.835938 C 141.5 18.335938 141.496094 18.832031 141.496094 19.332031 C 141.480469 22.710938 141.195312 26.011719 139.460938 28.988281 C 138.90625 29.796875 138.285156 30.453125 137.515625 31.058594 C 137.710938 30.539062 137.953125 30.058594 138.214844 29.570312 C 138.90625 28.195312 139.234375 26.835938 139.496094 25.328125 L 139.5625 24.925781 C 139.992188 22.273438 139.410156 19.589844 138.554688 17.070312 C 138.480469 16.894531 138.410156 16.71875 138.339844 16.546875 C 138.121094 15.984375 138.101562 15.457031 138.109375 14.859375 L 138.101562 14.558594 C 138.101562 14.046875 138.148438 13.65625 138.394531 13.199219 C 138.808594 12.621094 139.226562 12.34375 139.851562 12.015625 C 141.078125 11.535156 142.304688 11.386719 143.605469 11.292969 C 143.804688 11.277344 144.003906 11.265625 144.203125 11.25 C 144.722656 11.207031 145.246094 11.167969 145.765625 11.132812 C 146.269531 11.097656 146.773438 11.058594 147.28125 11.019531 C 148.09375 10.957031 148.90625 10.898438 149.71875 10.839844 C 154.441406 10.492188 159.152344 10.097656 163.863281 9.59375 C 164.207031 9.558594 164.550781 9.523438 164.894531 9.488281 C 172.492188 8.695312 181.1875 7.570312 187.855469 3.597656 L 188.132812 3.382812 Z M 188.371094 3.207031 "></path><path style=" stroke:none;fill-rule:nonzero;fill:#fefefe;fill-opacity:1;" d="M 65.769531 11.5 C 66.257812 11.652344 66.734375 11.835938 67.195312 12.058594 C 77.472656 16.84375 91.835938 15.929688 104.691406 15.902344 L 104.5625 18.882812 C 99.953125 18.910156 95.355469 18.929688 90.753906 18.644531 C 90.417969 18.621094 90.082031 18.601562 89.746094 18.582031 C 82.777344 18.164062 74.445312 17.523438 68.367188 13.832031 C 67.414062 13.199219 66.542969 12.46875 65.769531 11.628906 Z M 182.015625 11.367188 L 182.273438 11.5 C 180.214844 13.703125 177.757812 14.871094 174.90625 15.757812 C 168.320312 17.726562 161.617188 18.445312 154.769531 18.753906 L 154.304688 18.777344 C 151.804688 18.894531 149.308594 18.894531 146.808594 18.898438 L 146.292969 18.898438 C 145.808594 18.898438 145.328125 18.898438 144.84375 18.898438 L 143.625 18.898438 L 143.355469 18.882812 L 143.222656 18.753906 C 143.175781 18.300781 143.164062 17.847656 143.144531 17.394531 L 143.121094 17.003906 L 143.105469 16.636719 L 143.089844 16.292969 L 143.09375 16.03125 L 143.222656 15.902344 C 143.515625 15.894531 143.808594 15.894531 144.101562 15.898438 L 144.699219 15.90625 L 145.027344 15.90625 C 161.875 16.109375 161.875 16.109375 181.683594 11.523438 Z M 182.015625 11.367188 "></path><path style=" stroke:none;fill-rule:nonzero;fill:#fefefe;fill-opacity:1;" d="M 175.660156 16.292969 L 175.660156 16.679688 C 173.914062 18.59375 171.535156 19.621094 169.125 20.417969 C 160.742188 23.046875 151.710938 23.523438 142.964844 23.417969 C 142.984375 23.066406 143.003906 22.714844 143.023438 22.363281 L 143.035156 22.066406 L 143.054688 21.773438 L 143.066406 21.503906 C 143.101562 21.144531 143.160156 20.792969 143.222656 20.4375 L 143.453125 20.433594 C 159.769531 20.71875 159.769531 20.71875 175.269531 16.550781 Z M 72.128906 16.421875 C 72.617188 16.566406 73.066406 16.753906 73.523438 16.972656 C 82.6875 21.132812 94.773438 20.296875 104.5625 20.4375 C 104.707031 21.199219 104.847656 21.953125 104.902344 22.726562 L 104.933594 23.125 L 104.953125 23.417969 C 82.257812 23.183594 82.257812 23.183594 74.722656 18.753906 C 73.765625 18.132812 72.898438 17.390625 72.128906 16.550781 Z M 126.878906 15.902344 C 128.332031 16.527344 129.457031 17.414062 130.421875 18.664062 C 131.171875 19.757812 131.613281 20.886719 131.78125 22.203125 C 131.878906 23.777344 131.609375 25.222656 130.957031 26.65625 C 130.320312 27.863281 129.390625 28.820312 128.25 29.570312 C 126.945312 30.324219 125.914062 30.570312 124.421875 30.582031 L 123.957031 30.59375 C 122.628906 30.601562 121.539062 30.316406 120.375 29.675781 C 119.183594 28.914062 118.273438 27.984375 117.535156 26.785156 C 117.484375 26.703125 117.433594 26.621094 117.378906 26.535156 C 116.796875 25.511719 116.613281 24.269531 116.570312 23.109375 C 116.609375 21.703125 116.972656 20.289062 117.695312 19.082031 C 118.109375 18.488281 118.582031 17.96875 119.09375 17.457031 C 119.167969 17.382812 119.238281 17.308594 119.316406 17.230469 C 120.144531 16.453125 121.21875 15.972656 122.304688 15.660156 C 123.808594 15.328125 125.421875 15.398438 126.878906 15.902344 M 123.375 15.773438 C 123.214844 16.144531 123.214844 16.144531 123.300781 16.46875 L 123.402344 16.824219 L 123.511719 17.210938 L 123.625 17.609375 L 123.738281 18.019531 C 123.832031 18.347656 123.925781 18.679688 124.023438 19.011719 L 124.414062 19.011719 C 124.546875 18.546875 124.679688 18.078125 124.808594 17.609375 L 124.925781 17.210938 L 125.03125 16.824219 L 125.132812 16.46875 C 125.21875 16.144531 125.21875 16.144531 125.0625 15.773438 Z M 121.761719 16.121094 L 121.40625 16.253906 C 120.992188 16.441406 120.632812 16.679688 120.261719 16.9375 L 120.46875 17.351562 C 120.941406 18.285156 121.40625 19.214844 121.816406 20.179688 C 122.558594 19.9375 123.289062 19.667969 124.023438 19.402344 C 123.75 18.269531 123.441406 17.148438 123.113281 16.03125 C 122.582031 15.882812 122.273438 15.925781 121.761719 16.121094 M 125.449219 15.902344 C 125.199219 16.621094 124.972656 17.347656 124.769531 18.082031 L 124.628906 18.578125 C 124.507812 19.027344 124.507812 19.027344 124.671875 19.53125 L 125.96875 19.789062 C 126.121094 19.328125 126.273438 18.867188 126.421875 18.40625 L 126.554688 18.007812 L 126.679688 17.625 L 126.792969 17.273438 C 126.878906 16.933594 126.894531 16.640625 126.878906 16.292969 L 126.457031 16.097656 L 126.21875 15.988281 C 125.929688 15.875 125.929688 15.875 125.449219 15.902344 M 127.136719 16.550781 C 127.007812 16.945312 126.882812 17.34375 126.753906 17.742188 L 126.644531 18.082031 L 126.542969 18.410156 L 126.445312 18.710938 C 126.355469 19.027344 126.289062 19.339844 126.226562 19.660156 C 126.773438 19.5 127.082031 19.234375 127.46875 18.835938 L 127.671875 18.625 C 128.390625 17.875 128.390625 17.875 128.824219 17.585938 C 128.753906 17.339844 128.753906 17.339844 128.5625 17.070312 C 128.277344 16.855469 127.984375 16.679688 127.65625 16.550781 Z M 119.871094 17.070312 C 119.648438 17.265625 119.648438 17.265625 119.417969 17.515625 C 118.988281 17.960938 118.988281 17.960938 118.703125 18.105469 C 118.726562 18.351562 118.726562 18.351562 118.832031 18.625 C 119.085938 18.839844 119.085938 18.839844 119.40625 19.019531 L 119.753906 19.226562 L 120.121094 19.441406 L 120.488281 19.660156 C 120.949219 19.9375 120.949219 19.9375 121.429688 20.179688 L 121.6875 20.046875 L 120.128906 17.070312 Z M 128.953125 17.585938 L 128.734375 17.808594 C 127.203125 19.355469 127.203125 19.355469 126.359375 19.917969 C 126.558594 20.414062 126.882812 20.722656 127.265625 21.085938 C 127.628906 20.917969 127.914062 20.734375 128.214844 20.472656 L 128.453125 20.269531 L 128.695312 20.054688 C 129.667969 19.207031 129.667969 19.207031 130.121094 18.882812 C 129.941406 18.464844 129.742188 18.226562 129.390625 17.941406 Z M 118.316406 18.625 C 118.125 18.839844 118.125 18.839844 117.964844 19.117188 L 117.792969 19.394531 C 117.636719 19.667969 117.636719 19.667969 117.664062 20.046875 L 118.027344 20.253906 L 118.507812 20.527344 L 118.761719 20.667969 C 119.214844 20.925781 119.652344 21.195312 120.082031 21.488281 L 120.519531 21.730469 C 120.796875 21.648438 120.796875 21.648438 121.039062 21.472656 C 121.285156 21.175781 121.285156 21.175781 121.429688 20.824219 C 121.414062 20.5625 121.414062 20.5625 121.296875 20.308594 C 121.085938 20.113281 121.085938 20.113281 120.816406 19.953125 L 120.523438 19.769531 L 120.210938 19.578125 L 119.90625 19.386719 C 119.714844 19.269531 119.527344 19.152344 119.335938 19.035156 C 119.125 18.902344 118.914062 18.761719 118.703125 18.625 Z M 130.121094 19.011719 C 129.894531 19.203125 129.671875 19.402344 129.457031 19.601562 C 128.863281 20.148438 128.265625 20.6875 127.65625 21.214844 C 128.078125 21.351562 128.378906 21.332031 128.8125 21.246094 L 129.175781 21.175781 L 129.933594 21.027344 C 130.5625 20.917969 130.5625 20.917969 131.160156 20.695312 C 130.976562 20.070312 130.714844 19.566406 130.378906 19.011719 Z M 117.535156 20.179688 C 117.179688 20.800781 117.078125 21.289062 117.015625 21.992188 C 117.363281 22.164062 117.625 22.136719 118.011719 22.132812 L 118.453125 22.132812 L 118.914062 22.128906 L 119.378906 22.128906 C 119.761719 22.125 120.140625 22.125 120.519531 22.121094 L 120.390625 21.730469 C 120.136719 21.535156 120.136719 21.535156 119.820312 21.355469 L 119.46875 21.144531 L 119.101562 20.929688 L 118.734375 20.710938 C 118.269531 20.433594 118.269531 20.433594 117.796875 20.179688 Z M 122.726562 20.824219 L 122.726562 21.085938 C 123.402344 21.46875 123.402344 21.46875 124.152344 21.636719 L 124.414062 21.601562 L 124.671875 20.953125 L 124.929688 21.085938 L 124.800781 21.863281 L 125.214844 21.789062 C 125.652344 21.738281 125.9375 21.746094 126.359375 21.863281 L 126.226562 21.214844 L 125.796875 21.117188 C 125.320312 20.953125 125.320312 20.953125 125.070312 20.679688 L 124.929688 20.4375 L 124.414062 20.566406 L 124.414062 20.824219 L 124.152344 20.824219 L 123.894531 21.214844 L 123.894531 20.4375 C 123.464844 20.4375 123.113281 20.652344 122.726562 20.824219 M 130.191406 21.097656 L 129.769531 21.183594 L 128.878906 21.371094 C 128.515625 21.449219 128.148438 21.527344 127.785156 21.601562 C 127.589844 22.207031 127.589844 22.207031 127.914062 23.15625 L 131.417969 22.507812 C 131.480469 21.574219 131.480469 21.574219 131.289062 21.148438 L 131.160156 20.953125 C 130.824219 20.953125 130.523438 21.027344 130.191406 21.097656 M 122.335938 21.34375 C 122.011719 21.558594 122.011719 21.558594 121.816406 21.863281 L 121.816406 22.121094 L 122.464844 21.992188 L 122.464844 21.730469 L 122.839844 21.933594 L 123.246094 22.121094 L 123.503906 21.992188 C 123.441406 21.722656 123.441406 21.722656 123.246094 21.472656 C 122.808594 21.320312 122.808594 21.320312 122.335938 21.34375 M 125.578125 21.992188 L 125.578125 22.507812 L 126.359375 22.640625 L 126.488281 23.027344 L 125.578125 23.027344 L 125.710938 23.417969 L 126.359375 23.546875 L 126.359375 23.285156 L 126.617188 23.285156 L 126.878906 22.898438 L 126.878906 22.378906 C 126.253906 22.082031 126.253906 22.082031 125.578125 21.992188 M 117.015625 22.25 L 116.757812 22.507812 C 116.75 22.792969 116.75 22.792969 116.796875 23.101562 L 116.835938 23.417969 L 116.886719 23.675781 L 117.015625 23.804688 C 117.285156 23.824219 117.554688 23.835938 117.824219 23.847656 L 118.320312 23.863281 L 118.839844 23.878906 L 119.363281 23.894531 C 119.792969 23.910156 120.222656 23.921875 120.648438 23.933594 L 120.648438 22.25 C 120.136719 22.246094 119.625 22.238281 119.113281 22.234375 C 118.851562 22.234375 118.589844 22.230469 118.332031 22.226562 L 117.835938 22.226562 L 117.378906 22.222656 Z M 122.207031 22.378906 C 121.84375 22.625 121.84375 22.625 121.558594 22.898438 C 121.59375 23.15625 121.59375 23.15625 121.6875 23.417969 L 122.078125 23.546875 L 122.078125 23.804688 L 121.816406 23.933594 L 121.945312 24.582031 C 122.425781 24.742188 122.753906 24.664062 123.246094 24.582031 L 123.375 24.0625 C 123.066406 24.136719 122.765625 24.222656 122.464844 24.324219 L 122.335938 23.804688 L 122.984375 23.675781 L 122.855469 23.285156 L 122.207031 23.15625 L 122.078125 22.769531 L 122.984375 22.898438 L 122.855469 22.378906 C 122.558594 22.335938 122.558594 22.335938 122.207031 22.378906 M 123.65625 22.535156 C 123.480469 22.769531 123.480469 22.769531 123.457031 23.09375 C 123.484375 23.414062 123.484375 23.414062 123.640625 23.660156 L 123.894531 23.804688 C 124.363281 23.796875 124.363281 23.796875 124.800781 23.675781 C 124.957031 23.40625 124.957031 23.40625 124.964844 23.027344 L 124.929688 22.640625 C 124.574219 22.359375 124.574219 22.359375 124.21875 22.339844 C 123.890625 22.355469 123.890625 22.355469 123.65625 22.535156 M 129.421875 23.027344 L 129.058594 23.101562 C 128.765625 23.164062 128.46875 23.226562 128.175781 23.285156 L 128.175781 23.546875 C 128.617188 23.722656 129.058594 23.898438 129.503906 24.070312 L 129.886719 24.226562 L 130.253906 24.367188 L 130.589844 24.5 C 130.894531 24.605469 130.894531 24.605469 131.199219 24.53125 L 131.417969 24.453125 C 131.5625 23.882812 131.558594 23.355469 131.546875 22.769531 C 130.8125 22.730469 130.136719 22.878906 129.421875 23.027344 M 127.785156 23.675781 C 127.699219 23.863281 127.613281 24.054688 127.527344 24.242188 L 127.378906 24.5625 C 127.25 24.832031 127.25 24.832031 127.265625 25.101562 C 127.796875 25.320312 128.332031 25.539062 128.863281 25.757812 L 129.324219 25.945312 L 129.761719 26.125 L 130.167969 26.292969 L 130.511719 26.394531 L 130.898438 26.265625 C 131.03125 26.039062 131.03125 26.039062 131.117188 25.765625 C 131.152344 25.671875 131.183594 25.582031 131.214844 25.488281 C 131.304688 25.210938 131.304688 25.210938 131.289062 24.839844 C 130.777344 24.644531 130.265625 24.453125 129.753906 24.257812 L 129.316406 24.089844 L 128.894531 23.929688 L 128.503906 23.78125 C 128.171875 23.65625 128.171875 23.65625 127.785156 23.675781 M 126.226562 23.675781 C 126.144531 23.9375 126.144531 23.9375 126.097656 24.195312 L 125.839844 23.804688 L 125.191406 23.933594 L 125.191406 24.195312 L 125.449219 24.324219 L 125.320312 24.710938 L 125.0625 24.710938 L 124.929688 24.324219 L 124.542969 24.453125 L 124.542969 24.972656 C 124.9375 25.125 125.25 25.230469 125.675781 25.222656 L 125.96875 25.101562 C 126.113281 24.796875 126.113281 24.796875 126.226562 24.453125 L 126.746094 23.933594 L 126.746094 23.546875 C 126.476562 23.527344 126.476562 23.527344 126.226562 23.675781 M 119.382812 23.949219 L 118.945312 23.96875 L 118.484375 23.992188 L 118.019531 24.011719 C 117.644531 24.027344 117.265625 24.046875 116.886719 24.0625 C 116.941406 24.316406 117 24.566406 117.058594 24.816406 L 117.152344 25.242188 C 117.25 25.617188 117.25 25.617188 117.484375 25.863281 L 117.664062 26.007812 C 118.042969 25.78125 118.421875 25.554688 118.800781 25.328125 L 119.125 25.132812 C 119.648438 24.820312 120.117188 24.527344 120.519531 24.0625 C 120.097656 23.921875 119.824219 23.929688 119.382812 23.949219 M 120.648438 24.324219 C 120.425781 24.453125 120.203125 24.585938 119.984375 24.71875 L 119.578125 24.96875 L 118.71875 25.492188 C 118.367188 25.707031 118.015625 25.921875 117.664062 26.136719 C 117.742188 26.601562 117.742188 26.601562 117.949219 27.019531 L 118.128906 27.214844 L 118.445312 27.5625 C 119.476562 27.019531 120.449219 26.386719 121.429688 25.75 C 121.332031 25.164062 121.136719 24.800781 120.78125 24.324219 Z M 123.761719 24.453125 L 123.503906 24.972656 L 123.753906 25.074219 L 124.023438 25.230469 L 124.152344 25.617188 L 124.800781 25.617188 L 124.800781 25.230469 L 124.152344 25.101562 L 124.152344 24.453125 Z M 122.855469 24.839844 L 122.726562 25.359375 L 123.503906 25.617188 L 123.375 24.972656 Z M 127.394531 25.359375 C 127.519531 26.019531 127.929688 26.4375 128.34375 26.945312 L 128.574219 27.238281 L 128.796875 27.515625 L 129 27.769531 L 129.210938 27.949219 L 129.730469 27.949219 C 129.992188 27.703125 129.992188 27.703125 130.21875 27.382812 L 130.460938 27.066406 L 130.640625 26.785156 L 130.640625 26.523438 C 130.171875 26.328125 129.703125 26.136719 129.238281 25.941406 L 128.835938 25.773438 L 128.449219 25.613281 L 128.089844 25.464844 C 127.777344 25.339844 127.777344 25.339844 127.394531 25.359375 M 126.878906 25.488281 C 126.695312 25.613281 126.515625 25.742188 126.34375 25.878906 L 126.058594 26.097656 L 125.839844 26.265625 C 125.917969 26.699219 126.074219 26.960938 126.347656 27.308594 L 126.574219 27.601562 L 126.8125 27.902344 C 126.96875 28.101562 127.125 28.300781 127.277344 28.496094 L 127.488281 28.761719 C 127.65625 28.988281 127.65625 28.988281 127.785156 29.246094 C 128.082031 29.226562 128.082031 29.226562 128.433594 29.117188 C 128.714844 28.917969 128.957031 28.699219 129.210938 28.46875 C 129.160156 28.105469 129.0625 27.925781 128.84375 27.625 L 128.539062 27.269531 C 128.101562 26.75 127.683594 26.222656 127.292969 25.664062 L 127.136719 25.488281 Z M 121.207031 25.988281 L 120.964844 26.144531 L 120.695312 26.3125 L 120.414062 26.492188 L 120.140625 26.667969 C 119.613281 27 119.089844 27.34375 118.574219 27.691406 C 118.703125 28.003906 118.824219 28.203125 119.070312 28.433594 L 119.34375 28.636719 L 119.617188 28.847656 L 119.871094 28.988281 L 120.261719 28.855469 C 120.445312 28.589844 120.445312 28.589844 120.605469 28.257812 L 120.796875 27.890625 L 120.992188 27.503906 L 121.1875 27.121094 C 121.398438 26.707031 121.609375 26.292969 121.816406 25.878906 C 121.445312 25.847656 121.445312 25.847656 121.207031 25.988281 M 121.816406 26.007812 L 121.609375 26.429688 L 121.332031 26.988281 L 121.195312 27.261719 C 120.96875 27.710938 120.738281 28.148438 120.476562 28.578125 L 120.261719 28.988281 L 120.390625 29.375 C 120.582031 29.539062 120.582031 29.539062 120.820312 29.667969 L 121.054688 29.804688 C 121.296875 29.914062 121.296875 29.914062 121.558594 29.859375 L 121.816406 29.765625 C 122.011719 29.449219 122.1875 29.125 122.34375 28.792969 L 122.480469 28.507812 C 122.789062 27.859375 123.046875 27.214844 123.246094 26.523438 C 123.082031 26.4375 122.914062 26.351562 122.75 26.265625 L 122.472656 26.121094 C 122.195312 25.980469 122.195312 25.980469 121.816406 26.007812 M 123.632812 26.65625 C 123.289062 26.929688 123.132812 27.234375 122.957031 27.632812 L 122.800781 27.980469 L 122.644531 28.339844 L 122.484375 28.699219 C 122.289062 29.136719 122.097656 29.566406 121.945312 30.023438 C 122.171875 30.09375 122.402344 30.160156 122.628906 30.226562 L 123.011719 30.339844 C 123.402344 30.445312 123.402344 30.445312 123.894531 30.28125 L 123.761719 26.914062 C 123.816406 27.648438 123.871094 28.382812 123.921875 29.121094 L 123.953125 29.53125 L 123.984375 29.957031 L 124.023438 30.28125 L 124.152344 30.410156 C 124.753906 30.445312 125.164062 30.390625 125.710938 30.152344 C 125.667969 29.640625 125.628906 29.132812 125.589844 28.621094 L 125.554688 28.183594 L 125.519531 27.761719 L 125.488281 27.371094 C 125.460938 27.027344 125.460938 27.027344 125.320312 26.65625 C 125.046875 26.644531 124.773438 26.636719 124.5 26.628906 L 124.039062 26.617188 Z M 125.449219 26.65625 L 125.839844 30.023438 L 126.359375 30.152344 C 126.703125 30.027344 126.703125 30.027344 127.039062 29.835938 L 127.390625 29.652344 L 127.65625 29.503906 C 127.527344 28.824219 127.097656 28.339844 126.699219 27.789062 L 126.464844 27.457031 L 126.242188 27.148438 L 126.035156 26.859375 L 125.839844 26.65625 Z M 125.449219 26.65625 "></path><path style=" stroke:none;fill-rule:nonzero;fill:#fefefe;fill-opacity:1;" d="M 78.484375 21.085938 C 79.015625 21.253906 79.539062 21.425781 80.054688 21.640625 C 87.71875 24.761719 97.089844 24.410156 105.210938 24.582031 C 105.59375 25.5625 105.917969 26.5625 106.25 27.5625 C 88.300781 27.265625 88.300781 27.265625 81.109375 23.277344 C 80.082031 22.664062 79.21875 22.035156 78.484375 21.085938 M 169.042969 21.085938 L 169.300781 21.214844 C 167.296875 23.394531 164.621094 24.296875 161.859375 25.164062 C 155.40625 27.167969 148.386719 27.484375 141.667969 27.5625 C 141.886719 26.832031 142.105469 26.105469 142.332031 25.378906 L 142.46875 24.925781 L 142.574219 24.582031 L 142.847656 24.574219 C 156.144531 24.703125 156.144531 24.703125 168.738281 21.214844 Z M 169.042969 21.085938 "></path><path style=" stroke:none;fill-rule:nonzero;fill:#fefefe;fill-opacity:1;" d="M 163.074219 25.488281 L 163.332031 25.617188 C 161.351562 27.664062 158.726562 28.558594 156.046875 29.347656 C 151.953125 30.511719 147.722656 30.9375 143.484375 31.1875 L 143.109375 31.210938 C 141.761719 31.292969 140.421875 31.339844 139.074219 31.320312 L 139.210938 31.136719 C 139.671875 30.527344 140.113281 29.910156 140.550781 29.285156 L 140.757812 28.988281 L 140.929688 28.714844 L 141.148438 28.46875 C 141.417969 28.398438 141.417969 28.398438 141.730469 28.390625 L 142.089844 28.378906 L 142.484375 28.375 L 142.894531 28.363281 C 143.1875 28.355469 143.480469 28.347656 143.773438 28.339844 C 144.542969 28.324219 145.316406 28.296875 146.085938 28.273438 L 146.554688 28.257812 C 154.953125 28.085938 154.953125 28.085938 162.839844 25.597656 Z M 84.453125 25.359375 L 84.835938 25.53125 C 89.667969 27.636719 95.082031 27.96875 100.289062 28.234375 L 100.605469 28.25 C 101.710938 28.308594 102.8125 28.34375 103.921875 28.328125 C 104.195312 28.328125 104.472656 28.328125 104.746094 28.324219 C 105 28.324219 105.25 28.3125 105.503906 28.300781 C 105.972656 28.296875 106.324219 28.3125 106.769531 28.46875 C 107.21875 28.9375 107.5 29.453125 107.804688 30.023438 C 107.972656 30.25 108.148438 30.476562 108.324219 30.695312 C 108.457031 30.859375 108.585938 31.023438 108.714844 31.1875 L 108.714844 31.320312 C 107.4375 31.332031 106.167969 31.292969 104.894531 31.222656 L 104.59375 31.203125 C 98.550781 30.863281 91.898438 30.316406 86.523438 27.300781 C 85.957031 26.921875 85.476562 26.484375 84.992188 26.011719 C 84.734375 25.742188 84.734375 25.742188 84.453125 25.617188 Z M 103.574219 43.777344 C 104.050781 43.988281 104.363281 44.25 104.691406 44.660156 C 104.941406 45.125 105.074219 45.488281 105.128906 46.011719 C 105.070312 46.574219 104.972656 47.019531 104.691406 47.511719 C 104.171875 48.144531 103.578125 48.644531 102.875 49.066406 C 103.296875 49.605469 103.746094 50.046875 104.269531 50.488281 C 104.730469 50.902344 105.15625 51.347656 105.585938 51.792969 L 105.859375 52.046875 L 106.117188 52.046875 C 106.53125 51.234375 106.921875 50.417969 107.285156 49.582031 L 108.453125 49.582031 C 108.15625 50.914062 107.605469 52.050781 106.898438 53.210938 L 107.128906 53.316406 C 107.417969 53.472656 107.605469 53.628906 107.835938 53.859375 L 108.0625 54.085938 L 108.292969 54.320312 L 108.527344 54.558594 C 108.722656 54.753906 108.914062 54.953125 109.101562 55.152344 L 109.101562 55.285156 C 108.519531 55.367188 107.996094 55.390625 107.417969 55.285156 C 106.863281 54.910156 106.433594 54.488281 105.988281 53.988281 L 105.714844 54.171875 C 104.617188 54.890625 103.671875 55.351562 102.347656 55.441406 C 101.425781 55.453125 100.609375 55.40625 99.761719 55.023438 C 99.367188 54.800781 99.085938 54.527344 98.824219 54.148438 C 98.5 53.574219 98.371094 53.019531 98.332031 52.363281 C 98.339844 51.714844 98.496094 51.199219 98.796875 50.621094 C 99.234375 50.082031 99.722656 49.605469 100.28125 49.195312 C 100.578125 49.101562 100.578125 49.101562 100.800781 49.066406 C 100.53125 48.601562 100.238281 48.175781 99.914062 47.75 C 99.652344 47.339844 99.515625 46.972656 99.464844 46.488281 C 99.460938 45.910156 99.46875 45.417969 99.648438 44.863281 C 99.949219 44.449219 100.246094 44.175781 100.671875 43.882812 C 101.574219 43.511719 102.640625 43.46875 103.574219 43.777344 M 101.335938 44.816406 C 101.007812 45.09375 100.839844 45.304688 100.671875 45.699219 C 100.574219 46.125 100.574219 46.125 100.671875 46.605469 C 100.972656 47.230469 101.324219 47.8125 101.835938 48.289062 C 102.425781 48.125 102.828125 47.9375 103.265625 47.511719 C 103.546875 47.113281 103.746094 46.820312 103.828125 46.339844 C 103.847656 45.910156 103.792969 45.585938 103.621094 45.195312 C 103.378906 44.898438 103.226562 44.804688 102.875 44.660156 C 102.328125 44.585938 101.847656 44.605469 101.335938 44.816406 M 101.449219 49.714844 C 100.742188 50.171875 100.167969 50.65625 99.761719 51.398438 C 99.601562 51.882812 99.566406 52.320312 99.632812 52.824219 C 99.75 53.175781 99.90625 53.449219 100.152344 53.730469 C 100.511719 54.003906 100.894531 54.1875 101.320312 54.34375 C 102.242188 54.460938 103.046875 54.296875 103.914062 53.988281 C 104.203125 53.835938 104.429688 53.671875 104.691406 53.46875 L 105.082031 53.210938 C 104.890625 52.773438 104.648438 52.488281 104.3125 52.15625 L 104.007812 51.851562 L 103.6875 51.535156 L 103.371094 51.222656 C 102.839844 50.691406 102.308594 50.167969 101.707031 49.714844 Z M 101.449219 49.714844 "></path><path style=" stroke:none;fill-rule:nonzero;fill:#fdfdfd;fill-opacity:1;" d="M 123.277344 44.09375 L 123.632812 44.273438 C 123.566406 44.628906 123.488281 44.960938 123.375 45.308594 C 122.886719 45.246094 122.429688 45.167969 121.957031 45.042969 C 120.941406 44.816406 119.828125 44.796875 118.808594 45.003906 C 118.09375 45.234375 117.519531 45.570312 116.980469 46.089844 C 116.421875 46.730469 116.109375 47.382812 115.9375 48.214844 C 115.769531 49.382812 115.800781 50.511719 116.109375 51.65625 C 116.257812 52.019531 116.433594 52.351562 116.628906 52.691406 L 116.742188 52.964844 C 116.871094 53.226562 116.871094 53.226562 117.132812 53.355469 L 117.40625 53.46875 L 117.644531 53.601562 C 118.503906 54.0625 119.324219 54.257812 120.300781 54.28125 C 121.179688 54.257812 121.179688 54.257812 122.597656 53.988281 L 122.726562 50.492188 L 120.128906 50.492188 L 120.128906 49.324219 C 120.902344 49.15625 121.667969 49.179688 122.449219 49.1875 L 123.894531 49.195312 L 123.894531 54.894531 C 122.019531 55.40625 120.023438 55.695312 118.09375 55.257812 C 117.070312 54.953125 116.304688 54.40625 115.566406 53.640625 C 115.152344 53.113281 114.90625 52.542969 114.683594 51.914062 L 114.585938 51.648438 C 114.238281 50.425781 114.269531 48.863281 114.578125 47.640625 C 114.898438 46.664062 115.304688 45.714844 116.074219 45.007812 C 117.011719 44.320312 118.101562 43.804688 119.261719 43.652344 C 120.605469 43.550781 122.015625 43.558594 123.277344 44.09375 "></path><path style=" stroke:none;fill-rule:nonzero;fill:#fefefe;fill-opacity:1;" d="M 90.121094 46.6875 C 90.621094 46.886719 91 47.140625 91.371094 47.527344 C 91.867188 48.167969 92.152344 48.914062 92.3125 49.703125 C 92.476562 50.929688 92.441406 52.203125 91.996094 53.367188 C 91.734375 53.941406 91.417969 54.347656 90.941406 54.765625 L 90.695312 54.984375 C 90.191406 55.292969 89.726562 55.394531 89.144531 55.441406 C 88.441406 55.460938 87.824219 55.429688 87.167969 55.171875 C 86.792969 54.949219 86.472656 54.652344 86.140625 54.378906 L 86.140625 59.171875 L 84.84375 59.171875 L 84.84375 46.734375 L 85.878906 46.734375 L 85.878906 47.769531 L 86.480469 47.332031 L 86.816406 47.085938 C 87.804688 46.472656 89.003906 46.417969 90.121094 46.6875 M 87.046875 47.898438 C 86.636719 48.253906 86.34375 48.695312 86.140625 49.195312 C 86.082031 49.769531 86.097656 50.347656 86.097656 50.929688 L 86.09375 51.40625 L 86.09375 51.871094 L 86.089844 52.292969 C 86.148438 52.757812 86.292969 53.066406 86.527344 53.46875 C 86.742188 53.714844 86.742188 53.714844 86.984375 53.898438 L 87.214844 54.09375 C 87.515625 54.300781 87.78125 54.371094 88.144531 54.40625 C 88.984375 54.433594 88.984375 54.433594 89.765625 54.160156 C 90.246094 53.792969 90.546875 53.503906 90.796875 52.949219 C 91.144531 51.980469 91.164062 50.992188 91.070312 49.972656 C 90.933594 49.351562 90.742188 48.8125 90.371094 48.296875 C 90.074219 47.972656 89.78125 47.773438 89.382812 47.59375 C 88.539062 47.417969 87.820312 47.519531 87.046875 47.898438 M 166.707031 46.714844 C 167.265625 46.964844 167.671875 47.265625 168.0625 47.746094 C 168.578125 48.519531 168.835938 49.304688 168.914062 50.230469 C 168.984375 51.421875 168.890625 52.546875 168.382812 53.640625 C 168.027344 54.261719 167.566406 54.757812 166.964844 55.152344 C 166.210938 55.472656 165.4375 55.488281 164.632812 55.414062 C 164.046875 55.289062 163.582031 55.105469 163.089844 54.765625 C 162.628906 54.332031 162.628906 54.332031 162.425781 54.117188 L 162.554688 54.378906 C 162.566406 54.734375 162.570312 55.089844 162.566406 55.449219 L 162.566406 55.773438 C 162.566406 56.109375 162.566406 56.449219 162.5625 56.789062 C 162.5625 57.019531 162.5625 57.25 162.5625 57.480469 C 162.558594 58.042969 162.558594 58.605469 162.554688 59.171875 L 161.386719 59.171875 L 161.386719 46.734375 L 162.425781 46.734375 L 162.554688 47.769531 L 162.753906 47.582031 C 162.84375 47.5 162.933594 47.417969 163.027344 47.332031 L 163.289062 47.085938 C 164.226562 46.394531 165.617188 46.40625 166.707031 46.714844 M 163.355469 48.078125 C 163.03125 48.40625 162.847656 48.699219 162.710938 49.140625 C 162.441406 50.453125 162.492188 51.78125 162.816406 53.082031 C 163.042969 53.585938 163.351562 53.90625 163.796875 54.238281 C 164.46875 54.445312 165.101562 54.457031 165.796875 54.378906 C 166.207031 54.257812 166.363281 54.140625 166.707031 53.859375 C 167.140625 53.335938 167.441406 52.757812 167.578125 52.085938 C 167.703125 51.070312 167.699219 50.066406 167.359375 49.09375 C 167.132812 48.609375 166.863281 48.234375 166.445312 47.898438 C 166.011719 47.660156 165.582031 47.539062 165.09375 47.460938 C 164.460938 47.554688 163.875 47.691406 163.355469 48.078125 M 143.613281 43.753906 L 144.78125 43.753906 L 145.316406 45.105469 L 145.488281 45.535156 C 145.984375 46.78125 146.480469 48.03125 146.972656 49.28125 C 147.292969 50.085938 147.613281 50.890625 147.933594 51.695312 C 148.09375 52.09375 148.253906 52.492188 148.410156 52.890625 C 148.484375 53.070312 148.554688 53.25 148.625 53.429688 C 148.722656 53.675781 148.820312 53.917969 148.917969 54.164062 L 149.082031 54.566406 C 149.191406 54.894531 149.191406 54.894531 149.191406 55.285156 L 147.894531 55.285156 L 146.46875 51.65625 C 145.84375 51.652344 145.21875 51.652344 144.597656 51.648438 C 144.386719 51.648438 144.171875 51.648438 143.960938 51.648438 C 143.65625 51.644531 143.351562 51.644531 143.046875 51.644531 L 142.757812 51.640625 C 142.261719 51.632812 142.261719 51.632812 141.796875 51.785156 C 141.6875 52.03125 141.585938 52.277344 141.492188 52.53125 L 141.320312 52.988281 L 141.140625 53.46875 C 141.023438 53.785156 140.90625 54.097656 140.785156 54.410156 L 140.628906 54.832031 C 140.5 55.152344 140.5 55.152344 140.371094 55.285156 C 140.171875 55.292969 139.976562 55.292969 139.777344 55.292969 L 139.453125 55.289062 L 139.203125 55.285156 C 139.292969 54.71875 139.480469 54.203125 139.6875 53.671875 L 139.800781 53.382812 C 139.921875 53.066406 140.042969 52.75 140.167969 52.433594 L 140.425781 51.769531 C 141.464844 49.089844 142.539062 46.421875 143.613281 43.753906 M 144.003906 45.308594 L 143.898438 45.695312 C 143.546875 46.941406 143.128906 48.148438 142.652344 49.351562 L 142.519531 49.6875 L 142.402344 49.988281 C 142.300781 50.230469 142.300781 50.230469 142.316406 50.492188 L 146.078125 50.492188 C 145.847656 49.71875 145.617188 48.972656 145.339844 48.21875 L 145.246094 47.960938 C 145.148438 47.699219 145.050781 47.433594 144.953125 47.171875 L 144.75 46.628906 C 144.585938 46.1875 144.425781 45.75 144.261719 45.308594 Z M 66.808594 44.144531 L 66.550781 45.308594 L 65.699219 45.121094 L 65.382812 45.050781 L 65.074219 44.980469 C 64.261719 44.839844 63.382812 44.804688 62.582031 45.003906 C 62.304688 45.125 62.101562 45.242188 61.878906 45.4375 C 61.574219 45.835938 61.574219 45.835938 61.488281 46.34375 C 61.488281 46.824219 61.527344 47.214844 61.75 47.640625 C 62.542969 48.425781 63.558594 48.753906 64.585938 49.128906 C 65.425781 49.449219 66.058594 49.835938 66.679688 50.492188 C 66.988281 50.941406 67.101562 51.351562 67.179688 51.882812 C 67.230469 52.601562 67.125 53.210938 66.808594 53.859375 C 66.40625 54.425781 65.933594 54.777344 65.308594 55.074219 C 64.238281 55.523438 63.019531 55.496094 61.878906 55.414062 C 61.265625 55.328125 60.664062 55.183594 60.0625 55.023438 C 59.925781 54.585938 59.921875 54.183594 59.933594 53.730469 L 60.421875 53.84375 C 62.503906 54.324219 62.503906 54.324219 64.59375 54.046875 C 64.941406 53.90625 65.191406 53.789062 65.457031 53.523438 C 65.699219 53.148438 65.773438 52.800781 65.828125 52.359375 C 65.765625 51.863281 65.652344 51.558594 65.382812 51.136719 C 64.714844 50.484375 63.824219 50.242188 62.964844 49.921875 C 62.105469 49.589844 61.382812 49.1875 60.710938 48.546875 C 60.332031 48.023438 60.167969 47.507812 60.070312 46.871094 C 60.035156 46.300781 60.113281 45.835938 60.320312 45.304688 C 60.589844 44.78125 61.003906 44.480469 61.457031 44.117188 C 63.089844 43.207031 65.109375 43.617188 66.808594 44.144531 M 79.914062 46.6875 C 80.574219 46.921875 81.070312 47.261719 81.539062 47.78125 C 82.066406 48.472656 82.320312 49.183594 82.464844 50.039062 C 82.605469 51.140625 82.464844 52.152344 82.117188 53.210938 C 81.804688 53.867188 81.398438 54.363281 80.835938 54.824219 C 80.214844 55.246094 79.632812 55.386719 78.894531 55.441406 C 78.171875 55.464844 77.496094 55.4375 76.820312 55.175781 C 76.167969 54.824219 75.605469 54.339844 75.191406 53.722656 C 74.730469 52.84375 74.542969 51.953125 74.550781 50.96875 L 74.554688 50.675781 C 74.574219 49.730469 74.757812 48.960938 75.210938 48.125 C 75.691406 47.535156 76.183594 47.117188 76.855469 46.75 C 77.796875 46.445312 78.957031 46.480469 79.914062 46.6875 M 76.894531 47.980469 C 76.445312 48.371094 76.230469 48.773438 76.019531 49.324219 C 75.703125 50.265625 75.789062 51.511719 75.972656 52.480469 C 76.128906 52.960938 76.296875 53.339844 76.632812 53.726562 C 76.984375 54.039062 77.253906 54.226562 77.707031 54.378906 C 78.433594 54.441406 79.160156 54.476562 79.839844 54.183594 C 80.199219 53.96875 80.433594 53.734375 80.675781 53.390625 C 81.082031 52.648438 81.214844 51.847656 81.242188 51.007812 C 81.214844 50.167969 81.082031 49.367188 80.667969 48.628906 C 80.378906 48.214844 80.089844 47.949219 79.636719 47.730469 C 78.65625 47.375 77.8125 47.523438 76.894531 47.980469 M 176.238281 46.734375 C 176.945312 47.046875 177.421875 47.40625 177.878906 48.03125 C 178.472656 48.988281 178.640625 49.917969 178.675781 51.035156 C 178.664062 51.941406 178.527344 52.832031 178.089844 53.640625 C 177.648438 54.273438 177.097656 54.757812 176.4375 55.152344 C 175.613281 55.507812 174.726562 55.480469 173.84375 55.414062 C 173.175781 55.300781 172.664062 55.054688 172.132812 54.644531 C 171.515625 54.066406 171.15625 53.34375 170.859375 52.5625 C 170.605469 51.382812 170.65625 50.203125 170.984375 49.042969 C 171.234375 48.363281 171.585938 47.800781 172.117188 47.304688 C 173.253906 46.429688 174.890625 46.347656 176.238281 46.734375 M 173.195312 47.898438 C 172.710938 48.285156 172.402344 48.757812 172.171875 49.324219 C 171.898438 50.28125 171.925781 51.328125 172.089844 52.300781 C 172.222656 52.804688 172.398438 53.238281 172.707031 53.65625 C 173.019531 53.949219 173.289062 54.167969 173.691406 54.316406 C 174.308594 54.453125 174.90625 54.464844 175.527344 54.378906 C 176.113281 54.15625 176.476562 53.835938 176.875 53.363281 C 177.359375 52.414062 177.402344 51.519531 177.386719 50.460938 C 177.328125 49.757812 177.179688 49.164062 176.828125 48.546875 C 176.558594 48.21875 176.285156 47.984375 175.917969 47.769531 C 174.9375 47.398438 174.128906 47.4375 173.195312 47.898438 "></path><path style=" stroke:none;fill-rule:nonzero;fill:#fdfdfd;fill-opacity:1;" d="M 131.160156 46.605469 C 131.785156 46.773438 132.230469 47.054688 132.71875 47.480469 C 133.308594 48.089844 133.675781 48.761719 133.882812 49.582031 C 134.066406 50.722656 134.070312 51.839844 133.753906 52.953125 C 133.453125 53.726562 133.003906 54.316406 132.355469 54.839844 C 131.734375 55.238281 131.109375 55.382812 130.382812 55.449219 C 129.667969 55.472656 128.996094 55.433594 128.324219 55.175781 C 127.671875 54.824219 127.121094 54.339844 126.699219 53.730469 C 126.148438 52.714844 126.050781 51.648438 126.074219 50.507812 C 126.132812 49.519531 126.371094 48.777344 126.90625 47.9375 C 127.347656 47.367188 127.863281 46.992188 128.527344 46.71875 C 129.375 46.492188 130.289062 46.503906 131.160156 46.605469 M 128.5625 47.898438 C 128.054688 48.308594 127.78125 48.726562 127.527344 49.324219 C 127.210938 50.269531 127.289062 51.519531 127.484375 52.484375 C 127.636719 52.941406 127.789062 53.324219 128.105469 53.691406 C 128.4375 53.984375 128.804688 54.207031 129.210938 54.378906 C 129.839844 54.453125 130.464844 54.457031 131.078125 54.296875 C 131.464844 54.132812 131.730469 53.949219 132.003906 53.628906 C 132.472656 52.945312 132.679688 52.246094 132.742188 51.425781 C 132.773438 50.507812 132.671875 49.664062 132.324219 48.808594 C 132.070312 48.359375 131.753906 48.078125 131.320312 47.792969 C 130.34375 47.4375 129.507812 47.425781 128.5625 47.898438 "></path><path style=" stroke:none;fill-rule:nonzero;fill:#fefefe;fill-opacity:1;" d="M 70.699219 44.660156 L 70.699219 46.605469 L 73.164062 46.734375 L 73.164062 47.640625 L 70.699219 47.640625 C 70.710938 48.441406 70.722656 49.242188 70.734375 50.039062 C 70.738281 50.3125 70.742188 50.585938 70.746094 50.855469 C 70.75 51.246094 70.757812 51.640625 70.765625 52.03125 L 70.765625 52.398438 C 70.777344 52.902344 70.796875 53.265625 71.003906 53.730469 C 71.222656 54.015625 71.222656 54.015625 71.609375 54.246094 C 72.023438 54.308594 72.023438 54.308594 72.476562 54.328125 L 72.941406 54.359375 L 73.296875 54.378906 L 73.296875 55.152344 C 72.59375 55.472656 71.976562 55.480469 71.21875 55.414062 C 70.847656 55.332031 70.648438 55.226562 70.3125 55.023438 C 69.894531 54.625 69.691406 54.335938 69.515625 53.785156 C 69.371094 53.152344 69.371094 52.535156 69.378906 51.890625 L 69.378906 51.519531 C 69.378906 51.132812 69.382812 50.746094 69.386719 50.359375 C 69.386719 50.097656 69.390625 49.832031 69.390625 49.570312 C 69.394531 48.925781 69.398438 48.285156 69.402344 47.640625 L 68.367188 47.640625 L 68.234375 47.121094 C 68.859375 46.742188 68.859375 46.742188 69.148438 46.644531 L 69.402344 46.476562 C 69.570312 46.078125 69.570312 46.078125 69.679688 45.625 C 69.753906 45.34375 69.832031 45.066406 69.921875 44.789062 C 70.183594 44.660156 70.183594 44.660156 70.699219 44.660156 M 188.242188 44.660156 L 188.890625 44.789062 L 188.890625 46.734375 L 191.488281 46.734375 L 191.488281 47.511719 L 191.355469 47.640625 C 191.171875 47.652344 190.988281 47.65625 190.804688 47.652344 L 190.46875 47.652344 L 190.117188 47.648438 L 189.761719 47.648438 C 189.472656 47.644531 189.183594 47.644531 188.890625 47.640625 C 188.902344 48.460938 188.917969 49.277344 188.933594 50.097656 C 188.9375 50.375 188.941406 50.652344 188.945312 50.929688 C 188.953125 51.332031 188.960938 51.730469 188.96875 52.132812 L 188.972656 52.507812 C 188.980469 53.347656 188.980469 53.347656 189.28125 54.117188 C 189.730469 54.269531 190.128906 54.289062 190.601562 54.320312 L 191.101562 54.351562 L 191.488281 54.378906 L 191.355469 55.285156 C 190.644531 55.492188 189.863281 55.511719 189.136719 55.355469 C 188.71875 55.195312 188.457031 54.980469 188.136719 54.667969 C 187.78125 54.140625 187.617188 53.667969 187.574219 53.039062 C 187.566406 52.695312 187.566406 52.351562 187.570312 52.003906 L 187.570312 51.625 C 187.570312 51.226562 187.574219 50.832031 187.578125 50.433594 C 187.578125 50.164062 187.582031 49.894531 187.582031 49.621094 C 187.585938 48.960938 187.589844 48.300781 187.59375 47.640625 L 187.089844 47.65625 C 186.808594 47.667969 186.808594 47.667969 186.554688 47.640625 L 186.296875 47.382812 L 186.425781 46.992188 C 186.679688 46.921875 186.679688 46.921875 186.996094 46.863281 C 187.320312 46.78125 187.320312 46.78125 187.59375 46.605469 C 187.765625 46.246094 187.84375 45.917969 187.914062 45.527344 C 187.980469 45.195312 188.078125 44.953125 188.242188 44.660156 M 159.699219 46.605469 L 159.441406 47.769531 L 158.859375 47.738281 C 158.265625 47.738281 157.847656 47.832031 157.332031 48.125 C 156.871094 48.457031 156.574219 48.855469 156.296875 49.355469 C 155.957031 50.597656 156.027344 51.949219 155.996094 53.226562 L 155.976562 53.828125 C 155.964844 54.3125 155.953125 54.796875 155.9375 55.285156 L 154.769531 55.285156 L 154.769531 46.734375 L 155.808594 46.734375 C 155.957031 47.03125 155.976562 47.261719 156.011719 47.59375 L 156.042969 47.914062 L 156.066406 48.160156 L 156.234375 47.949219 C 157.050781 46.96875 157.050781 46.96875 157.59375 46.683594 C 158.273438 46.5 159.003906 46.570312 159.699219 46.605469 M 185.777344 46.605469 C 185.929688 47.054688 185.871094 47.3125 185.777344 47.769531 L 185.496094 47.757812 C 184.914062 47.738281 184.421875 47.75 183.855469 47.90625 C 183.339844 48.222656 183.007812 48.574219 182.664062 49.066406 C 182.257812 49.863281 182.253906 50.738281 182.234375 51.613281 L 182.226562 51.933594 C 182.21875 52.269531 182.210938 52.601562 182.203125 52.9375 L 182.183594 53.617188 C 182.171875 54.171875 182.160156 54.726562 182.144531 55.285156 L 180.976562 55.285156 L 180.976562 46.734375 L 182.015625 46.734375 L 182.273438 48.160156 L 182.671875 47.671875 C 183.023438 47.28125 183.34375 46.929688 183.808594 46.683594 C 184.445312 46.503906 185.125 46.570312 185.777344 46.605469 M 83.285156 63.964844 L 84.0625 63.964844 C 84.089844 64.453125 84.113281 64.941406 84.136719 65.429688 L 84.160156 65.847656 L 84.175781 66.253906 L 84.195312 66.625 C 84.195312 66.941406 84.195312 66.941406 84.0625 67.332031 L 84.324219 67.332031 L 84.386719 67.097656 C 84.582031 66.8125 84.582031 66.8125 84.792969 66.691406 C 85.4375 66.429688 85.96875 66.359375 86.660156 66.425781 C 87.140625 66.585938 87.484375 66.746094 87.875 67.070312 C 88.085938 67.332031 88.085938 67.332031 88.214844 67.71875 C 88.226562 68.082031 88.230469 68.441406 88.226562 68.804688 L 88.226562 69.128906 C 88.226562 69.464844 88.226562 69.804688 88.222656 70.140625 C 88.222656 70.371094 88.222656 70.597656 88.222656 70.828125 C 88.21875 71.390625 88.21875 71.953125 88.214844 72.511719 L 87.4375 72.511719 L 87.429688 72.117188 C 87.421875 71.632812 87.414062 71.152344 87.402344 70.667969 C 87.398438 70.457031 87.394531 70.25 87.390625 70.039062 C 87.386719 69.738281 87.382812 69.4375 87.375 69.136719 L 87.371094 68.851562 C 87.359375 68.425781 87.3125 68.117188 87.125 67.726562 C 86.9375 67.449219 86.9375 67.449219 86.660156 67.332031 C 86.023438 67.277344 85.429688 67.25 84.835938 67.492188 C 84.554688 67.746094 84.4375 67.878906 84.324219 68.238281 C 84.183594 69.140625 84.152344 70.046875 84.121094 70.957031 L 84.101562 71.414062 C 84.089844 71.777344 84.078125 72.144531 84.0625 72.511719 L 83.285156 72.511719 Z M 121.558594 64.742188 L 121.296875 65.519531 L 120.878906 65.453125 C 119.734375 65.257812 119.734375 65.257812 118.589844 65.347656 L 118.183594 65.519531 C 117.886719 65.898438 117.886719 65.898438 117.875 66.410156 C 117.855469 66.671875 117.855469 66.671875 117.925781 66.941406 C 118.113281 67.292969 118.113281 67.292969 118.445312 67.589844 C 118.792969 67.773438 119.152344 67.902344 119.523438 68.035156 C 120.960938 68.597656 120.960938 68.597656 121.414062 69.050781 C 121.65625 69.429688 121.753906 69.792969 121.816406 70.234375 C 121.820312 70.792969 121.695312 71.246094 121.429688 71.734375 C 121.085938 72.117188 120.722656 72.296875 120.253906 72.480469 C 119.3125 72.765625 118.335938 72.722656 117.382812 72.519531 C 116.886719 72.382812 116.886719 72.382812 116.757812 72.253906 C 116.753906 72.039062 116.753906 71.820312 116.757812 71.605469 L 117.148438 71.476562 L 117.519531 71.597656 C 118.242188 71.820312 118.996094 71.800781 119.742188 71.734375 C 120.210938 71.59375 120.210938 71.59375 120.519531 71.347656 L 120.78125 70.957031 C 120.832031 70.226562 120.832031 70.226562 120.648438 69.535156 C 120.4375 69.441406 120.21875 69.355469 120 69.273438 C 119.652344 69.132812 119.308594 68.984375 118.964844 68.835938 L 118.6875 68.722656 C 118.152344 68.492188 117.710938 68.25 117.277344 67.847656 C 117.039062 67.5 116.90625 67.210938 116.851562 66.789062 C 116.832031 66.316406 116.875 65.941406 117.015625 65.484375 C 117.371094 64.996094 117.773438 64.738281 118.316406 64.480469 C 119.324219 64.160156 120.574219 64.40625 121.558594 64.742188 M 151.007812 66.425781 C 151.582031 66.605469 151.976562 66.878906 152.417969 67.28125 C 152.769531 67.839844 152.910156 68.363281 152.953125 69.015625 L 152.824219 69.664062 L 148.804688 69.664062 C 148.941406 70.867188 148.941406 70.867188 149.378906 71.355469 C 149.699219 71.625 149.699219 71.625 150.101562 71.734375 C 150.972656 71.78125 151.832031 71.738281 152.695312 71.605469 L 152.566406 72.253906 C 151.738281 72.589844 150.996094 72.75 150.101562 72.640625 C 149.582031 72.515625 149.160156 72.3125 148.707031 72.035156 C 148.300781 71.617188 148.042969 71.257812 147.894531 70.699219 C 147.777344 69.753906 147.746094 68.714844 148.105469 67.816406 C 148.382812 67.308594 148.710938 67.007812 149.191406 66.683594 C 149.765625 66.359375 150.363281 66.339844 151.007812 66.425781 M 149.742188 67.226562 C 149.332031 67.433594 149.332031 67.433594 149.078125 67.6875 C 148.871094 68.0625 148.871094 68.0625 148.804688 68.886719 L 152.046875 68.886719 L 151.65625 67.589844 C 151.183594 67.183594 151.183594 67.183594 150.707031 67.089844 C 150.222656 67.046875 150.222656 67.046875 149.742188 67.226562 M 80.066406 64.449219 L 80.34375 64.476562 C 80.59375 64.507812 80.835938 64.558594 81.078125 64.609375 C 81.335938 64.816406 81.335938 64.816406 81.46875 65 L 81.210938 65.519531 L 80.757812 65.453125 L 80.164062 65.371094 L 79.867188 65.328125 C 79.203125 65.242188 78.722656 65.265625 78.097656 65.519531 C 77.820312 65.867188 77.820312 65.867188 77.804688 66.183594 L 77.8125 66.488281 L 77.8125 66.792969 C 77.828125 67.097656 77.828125 67.097656 77.964844 67.460938 C 78.246094 67.601562 78.246094 67.601562 78.613281 67.71875 C 78.960938 67.863281 79.308594 68.007812 79.652344 68.15625 L 79.925781 68.269531 C 80.464844 68.5 80.910156 68.738281 81.339844 69.144531 C 81.550781 69.453125 81.597656 69.652344 81.640625 70.027344 C 81.648438 70.636719 81.648438 71.105469 81.402344 71.671875 C 80.9375 72.136719 80.425781 72.390625 79.800781 72.589844 C 78.925781 72.757812 77.988281 72.730469 77.148438 72.449219 L 76.667969 72.253906 L 76.667969 71.476562 L 77.140625 71.605469 C 77.964844 71.789062 78.8125 71.828125 79.652344 71.734375 C 80.085938 71.59375 80.085938 71.59375 80.429688 71.347656 C 80.59375 71.082031 80.59375 71.082031 80.632812 70.78125 L 80.699219 70.484375 C 80.707031 70.167969 80.707031 70.167969 80.542969 69.84375 C 80.253906 69.472656 80.007812 69.339844 79.578125 69.144531 L 79.160156 68.945312 C 78.898438 68.828125 78.640625 68.710938 78.375 68.59375 C 77.859375 68.359375 77.414062 68.140625 77.042969 67.703125 C 76.792969 67.304688 76.746094 66.949219 76.726562 66.480469 C 76.75 66.015625 76.804688 65.761719 77 65.332031 C 77.394531 64.917969 77.707031 64.722656 78.226562 64.480469 C 78.855469 64.332031 79.429688 64.367188 80.066406 64.449219 M 126.226562 66.425781 C 126.800781 66.605469 127.195312 66.878906 127.640625 67.28125 C 127.988281 67.839844 128.132812 68.363281 128.175781 69.015625 L 128.042969 69.664062 L 123.894531 69.664062 C 124.164062 70.867188 124.164062 70.867188 124.605469 71.355469 C 124.921875 71.625 124.921875 71.625 125.320312 71.734375 C 126.183594 71.789062 126.96875 71.773438 127.785156 71.476562 L 127.785156 72.253906 C 126.957031 72.589844 126.214844 72.75 125.320312 72.640625 C 124.789062 72.515625 124.371094 72.3125 123.917969 72.011719 C 123.539062 71.644531 123.316406 71.324219 123.164062 70.820312 C 122.957031 69.96875 122.914062 69.222656 123.132812 68.367188 C 123.308594 67.820312 123.535156 67.410156 123.9375 66.996094 C 124.609375 66.425781 125.378906 66.292969 126.226562 66.425781 M 124.671875 67.332031 C 124.289062 67.691406 124.160156 67.949219 124.007812 68.457031 L 123.894531 68.886719 C 124.386719 68.910156 124.878906 68.933594 125.367188 68.957031 L 125.792969 68.980469 L 126.199219 69 L 126.574219 69.019531 C 126.878906 69.039062 126.878906 69.039062 127.136719 68.886719 C 127.179688 68.53125 127.179688 68.53125 127.136719 68.109375 C 126.960938 67.671875 126.960938 67.671875 126.617188 67.332031 C 125.945312 67 125.355469 67.027344 124.671875 67.332031 M 110.789062 66.425781 C 111.339844 66.605469 111.730469 66.84375 112.136719 67.257812 C 112.347656 67.589844 112.347656 67.589844 112.605469 68.238281 L 112.605469 69.664062 L 108.453125 69.664062 C 108.722656 70.867188 108.722656 70.867188 109.175781 71.355469 C 109.46875 71.605469 109.46875 71.605469 109.75 71.734375 C 110.042969 71.75 110.335938 71.753906 110.628906 71.75 L 111.105469 71.753906 C 111.53125 71.738281 111.929688 71.6875 112.347656 71.605469 L 112.347656 72.253906 C 111.519531 72.589844 110.777344 72.746094 109.882812 72.640625 C 109.273438 72.503906 108.703125 72.25 108.238281 71.828125 C 107.800781 71.265625 107.601562 70.566406 107.5 69.875 C 107.46875 69.125 107.632812 68.40625 107.933594 67.71875 C 108.261719 67.191406 108.605469 66.875 109.144531 66.5625 C 109.71875 66.398438 110.195312 66.332031 110.789062 66.425781 M 109.101562 67.460938 C 108.855469 67.601562 108.855469 67.601562 108.714844 67.847656 L 108.453125 68.886719 L 111.699219 68.886719 C 111.660156 67.914062 111.660156 67.914062 111.292969 67.46875 C 110.929688 67.179688 110.929688 67.179688 110.480469 67.070312 C 109.925781 67.070312 109.59375 67.199219 109.101562 67.460938 M 90.160156 66.554688 C 90.421875 66.546875 90.679688 66.546875 90.941406 66.554688 L 90.949219 66.9375 C 90.957031 67.40625 90.96875 67.875 90.980469 68.34375 C 90.984375 68.546875 90.992188 68.75 90.996094 68.953125 C 91 69.246094 91.007812 69.539062 91.015625 69.832031 L 91.019531 70.105469 C 91.035156 70.613281 91.085938 71.027344 91.328125 71.476562 C 91.6875 71.757812 91.6875 71.757812 92.046875 71.773438 C 92.570312 71.777344 93.03125 71.769531 93.535156 71.613281 C 93.859375 71.28125 93.960938 70.988281 94.101562 70.550781 C 94.265625 69.808594 94.257812 69.050781 94.273438 68.292969 L 94.285156 67.785156 C 94.296875 67.375 94.304688 66.964844 94.3125 66.554688 L 95.089844 66.554688 C 95.242188 66.855469 95.234375 67.019531 95.222656 67.355469 L 95.214844 67.691406 L 95.207031 68.058594 L 95.195312 68.429688 C 95.1875 68.824219 95.175781 69.21875 95.164062 69.613281 L 95.144531 70.414062 C 95.128906 71.070312 95.109375 71.726562 95.089844 72.382812 L 94.441406 72.511719 L 94.183594 71.863281 L 93.90625 72.109375 C 93.511719 72.398438 93.234375 72.53125 92.757812 72.640625 C 92.152344 72.691406 91.804688 72.671875 91.230469 72.480469 C 90.824219 72.261719 90.574219 72.101562 90.292969 71.734375 C 90.042969 71.136719 89.996094 70.59375 90 69.953125 L 90 69.667969 C 90.003906 69.472656 90.003906 69.277344 90.003906 69.082031 C 90.007812 68.777344 90.007812 68.476562 90.007812 68.175781 L 90.011719 67.605469 L 90.011719 67.328125 C 90.011719 67.113281 90.019531 66.898438 90.03125 66.683594 Z M 163.980469 66.425781 C 164.515625 66.589844 164.8125 66.730469 165.199219 67.136719 C 165.410156 67.460938 165.410156 67.460938 165.539062 67.847656 C 165.550781 68.203125 165.554688 68.554688 165.550781 68.90625 L 165.550781 69.21875 C 165.550781 69.546875 165.550781 69.875 165.546875 70.207031 C 165.546875 70.429688 165.546875 70.652344 165.546875 70.875 C 165.542969 71.421875 165.542969 71.964844 165.539062 72.511719 L 164.761719 72.511719 L 164.753906 72.148438 C 164.746094 71.695312 164.738281 71.242188 164.726562 70.792969 C 164.722656 70.597656 164.71875 70.402344 164.714844 70.207031 C 164.710938 69.925781 164.703125 69.644531 164.699219 69.363281 L 164.6875 68.851562 C 164.625 68.300781 164.496094 67.949219 164.242188 67.460938 C 163.789062 67.234375 163.300781 67.289062 162.804688 67.296875 C 162.40625 67.308594 162.40625 67.308594 162.019531 67.542969 C 161.734375 67.902344 161.640625 68.183594 161.515625 68.625 C 161.488281 68.933594 161.472656 69.242188 161.464844 69.550781 L 161.457031 69.8125 C 161.449219 70.078125 161.441406 70.347656 161.4375 70.617188 L 161.421875 71.167969 C 161.410156 71.617188 161.398438 72.066406 161.386719 72.511719 L 160.609375 72.511719 L 160.609375 66.554688 L 161.257812 66.554688 L 161.515625 67.203125 L 161.800781 66.957031 C 162.503906 66.429688 163.117188 66.328125 163.980469 66.425781 M 150.75 46.734375 L 152.046875 46.734375 L 152.046875 55.285156 L 150.75 55.285156 Z M 133.363281 66.554688 L 134.273438 66.554688 C 134.757812 67.667969 135.167969 68.796875 135.546875 69.953125 L 135.707031 70.4375 C 135.832031 70.828125 135.960938 71.21875 136.089844 71.605469 C 136.554688 70.476562 136.964844 69.324219 137.371094 68.171875 C 137.453125 67.929688 137.539062 67.6875 137.625 67.445312 L 137.78125 67.011719 C 137.90625 66.683594 137.90625 66.683594 138.035156 66.554688 C 138.292969 66.546875 138.554688 66.546875 138.8125 66.554688 C 138.730469 67.253906 138.503906 67.855469 138.25 68.507812 L 138.121094 68.84375 C 138.03125 69.074219 137.941406 69.308594 137.847656 69.542969 C 137.710938 69.898438 137.570312 70.257812 137.433594 70.613281 L 137.171875 71.292969 L 137.046875 71.617188 C 136.753906 72.367188 136.753906 72.367188 136.609375 72.511719 C 136.304688 72.519531 136.003906 72.519531 135.699219 72.511719 C 135.332031 71.804688 135.011719 71.078125 134.730469 70.332031 L 134.613281 70.015625 C 134.53125 69.796875 134.449219 69.578125 134.367188 69.359375 C 134.238281 69.019531 134.113281 68.683594 133.984375 68.347656 L 133.742188 67.707031 C 133.703125 67.605469 133.667969 67.507812 133.628906 67.402344 C 133.363281 66.699219 133.363281 66.699219 133.363281 66.554688 M 97.554688 65.128906 L 98.074219 65.257812 L 98.074219 66.554688 L 99.761719 66.554688 L 99.890625 67.070312 L 99.761719 67.203125 C 99.476562 67.210938 99.195312 67.214844 98.910156 67.210938 L 98.441406 67.207031 L 98.074219 67.203125 C 98.085938 67.785156 98.09375 68.367188 98.109375 68.953125 C 98.113281 69.148438 98.117188 69.347656 98.121094 69.546875 C 98.125 69.832031 98.132812 70.117188 98.136719 70.402344 L 98.140625 70.671875 C 98.144531 70.953125 98.144531 70.953125 98.207031 71.347656 C 98.367188 71.601562 98.367188 71.601562 98.59375 71.734375 C 98.890625 71.808594 98.890625 71.808594 99.203125 71.824219 L 99.519531 71.851562 L 99.761719 71.863281 L 99.890625 72.382812 C 99.558594 72.597656 99.332031 72.644531 98.933594 72.683594 C 98.417969 72.636719 98.121094 72.53125 97.6875 72.253906 C 97.40625 71.945312 97.300781 71.742188 97.167969 71.347656 C 97.15625 71.03125 97.152344 70.71875 97.15625 70.402344 L 97.15625 70.125 C 97.15625 69.832031 97.15625 69.542969 97.160156 69.25 C 97.160156 69.050781 97.160156 68.855469 97.160156 68.65625 C 97.164062 68.171875 97.164062 67.6875 97.167969 67.203125 L 96.257812 67.203125 C 96.285156 66.957031 96.285156 66.957031 96.390625 66.683594 L 96.699219 66.578125 L 97.039062 66.425781 C 97.226562 66.117188 97.226562 66.117188 97.335938 65.761719 L 97.464844 65.402344 Z M 171.132812 66.554688 L 171.507812 66.683594 L 171.246094 67.332031 L 170.847656 67.320312 C 170.675781 67.320312 170.5 67.316406 170.324219 67.316406 C 170.238281 67.3125 170.152344 67.3125 170.0625 67.308594 C 169.5 67.304688 169.027344 67.335938 168.523438 67.589844 C 168.199219 68.195312 168.136719 68.894531 168.125 69.570312 C 168.15625 70.113281 168.191406 70.550781 168.433594 71.042969 C 168.664062 71.363281 168.824219 71.546875 169.171875 71.734375 C 169.578125 71.789062 169.578125 71.789062 170.015625 71.769531 C 170.160156 71.765625 170.308594 71.765625 170.457031 71.761719 C 170.785156 71.742188 171.0625 71.703125 171.378906 71.605469 L 171.378906 72.382812 C 170.671875 72.621094 170.046875 72.722656 169.300781 72.640625 C 168.917969 72.566406 168.597656 72.453125 168.261719 72.253906 C 167.871094 71.902344 167.582031 71.53125 167.335938 71.066406 C 167.183594 70.558594 167.179688 70.085938 167.175781 69.558594 L 167.167969 69.257812 C 167.164062 68.597656 167.285156 68.132812 167.597656 67.550781 C 167.855469 67.164062 168.132812 66.945312 168.523438 66.683594 C 169.332031 66.296875 170.28125 66.3125 171.132812 66.554688 M 146.417969 66.554688 L 146.726562 66.683594 L 146.597656 67.332031 L 146.167969 67.316406 C 145.976562 67.3125 145.789062 67.308594 145.601562 67.308594 L 145.316406 67.296875 C 144.875 67.292969 144.550781 67.320312 144.144531 67.5 C 143.835938 67.722656 143.835938 67.722656 143.636719 68.164062 C 143.375 68.976562 143.394531 69.828125 143.550781 70.660156 C 143.667969 71.089844 143.667969 71.089844 143.871094 71.476562 C 144.265625 71.710938 144.617188 71.75 145.066406 71.761719 C 145.265625 71.757812 145.464844 71.757812 145.664062 71.75 L 145.976562 71.75 C 146.226562 71.746094 146.476562 71.742188 146.726562 71.734375 L 146.597656 72.382812 C 145.933594 72.65625 145.355469 72.714844 144.652344 72.640625 C 144.261719 72.570312 143.949219 72.460938 143.613281 72.253906 C 143.121094 71.824219 142.777344 71.386719 142.519531 70.789062 C 142.375 69.859375 142.359375 69.035156 142.648438 68.132812 C 142.835938 67.667969 143.03125 67.339844 143.402344 67 C 144.3125 66.332031 145.347656 66.257812 146.417969 66.554688 M 101.578125 65.128906 L 101.96875 65.128906 L 101.96875 66.554688 L 103.785156 66.554688 L 103.785156 67.203125 L 101.96875 67.203125 C 101.980469 67.746094 101.992188 68.289062 102.007812 68.832031 C 102.011719 69.019531 102.019531 69.203125 102.023438 69.386719 C 102.027344 69.65625 102.035156 69.921875 102.042969 70.1875 L 102.054688 70.671875 C 102.078125 71.074219 102.078125 71.074219 102.203125 71.394531 L 102.355469 71.605469 C 102.867188 71.789062 103.382812 71.898438 103.914062 71.996094 C 103.875 72.246094 103.875 72.246094 103.785156 72.511719 C 103.316406 72.667969 102.976562 72.675781 102.488281 72.640625 C 102.074219 72.496094 102.074219 72.496094 101.707031 72.253906 C 101.429688 71.914062 101.429688 71.914062 101.1875 71.476562 C 101.144531 71.121094 101.128906 70.820312 101.136719 70.464844 C 101.140625 70.371094 101.140625 70.277344 101.140625 70.179688 C 101.144531 69.882812 101.148438 69.585938 101.15625 69.289062 C 101.160156 69.089844 101.160156 68.886719 101.164062 68.683594 C 101.167969 68.1875 101.179688 67.695312 101.1875 67.203125 L 100.28125 67.203125 C 100.304688 66.957031 100.304688 66.957031 100.410156 66.683594 L 100.722656 66.578125 L 101.058594 66.425781 C 101.246094 66.117188 101.246094 66.117188 101.359375 65.761719 L 101.488281 65.402344 Z M 157.625 64.480469 L 158.402344 64.480469 L 158.535156 64.609375 C 158.546875 64.851562 158.550781 65.09375 158.550781 65.335938 L 158.550781 66.320312 C 158.550781 66.492188 158.550781 66.667969 158.550781 66.839844 C 158.550781 67.203125 158.550781 67.570312 158.550781 67.933594 C 158.550781 68.402344 158.550781 68.871094 158.550781 69.339844 C 158.550781 69.699219 158.550781 70.058594 158.550781 70.414062 C 158.550781 70.671875 158.550781 70.929688 158.550781 71.1875 L 158.550781 72.074219 L 158.535156 72.382812 L 158.402344 72.511719 L 157.625 72.511719 Z M 132.976562 66.425781 L 133.105469 66.554688 C 133.109375 66.769531 133.109375 66.984375 133.105469 67.203125 L 132.785156 67.234375 C 131.914062 67.347656 131.914062 67.347656 131.140625 67.734375 C 130.769531 68.308594 130.660156 68.875 130.605469 69.542969 C 130.585938 69.996094 130.570312 70.445312 130.558594 70.894531 L 130.542969 71.367188 C 130.53125 71.75 130.519531 72.128906 130.511719 72.511719 L 129.730469 72.511719 L 129.730469 66.683594 L 130.378906 66.554688 C 130.53125 66.851562 130.578125 67.132812 130.640625 67.460938 L 130.84375 67.160156 C 131.441406 66.5 132.105469 66.355469 132.976562 66.425781 M 105.082031 63.964844 L 105.859375 63.964844 L 105.859375 72.511719 L 105.082031 72.511719 Z M 139.980469 66.554688 L 140.757812 66.554688 L 140.757812 72.511719 L 139.980469 72.511719 Z M 151.332031 43.445312 C 151.65625 43.496094 151.65625 43.496094 151.890625 43.632812 C 152.046875 43.882812 152.046875 43.882812 152.101562 44.335938 L 152.046875 44.789062 C 151.828125 45.050781 151.828125 45.050781 151.527344 45.179688 C 151.1875 45.164062 151.1875 45.164062 150.878906 45.050781 C 150.621094 44.660156 150.621094 44.660156 150.578125 44.273438 C 150.621094 43.882812 150.621094 43.882812 150.773438 43.640625 C 151.007812 43.496094 151.007812 43.496094 151.332031 43.445312 M 173.195312 71.21875 C 173.460938 71.25 173.460938 71.25 173.710938 71.347656 L 173.972656 71.605469 C 174.003906 71.996094 174.003906 71.996094 173.972656 72.382812 L 173.710938 72.640625 C 173.316406 72.667969 173.316406 72.667969 172.933594 72.640625 L 172.804688 72.511719 C 172.757812 71.757812 172.757812 71.757812 172.804688 71.476562 Z M 140.109375 64.351562 C 140.328125 64.347656 140.542969 64.347656 140.757812 64.351562 C 140.808594 64.609375 140.851562 64.867188 140.890625 65.128906 L 140.757812 65.386719 C 140.449219 65.402344 140.449219 65.402344 140.109375 65.386719 L 139.851562 65.128906 C 139.890625 64.796875 139.890625 64.796875 139.980469 64.480469 Z M 140.109375 64.351562 "></path></g></svg>